<?xml version="1.0" encoding="UTF-8"?><svg xmlns="http://www.w3.org/2000/svg" xmlns:xlink="http://www.w3.org/1999/xlink" height="811.0" preserveAspectRatio="xMidYMid meet" version="1.0" viewBox="0.0 0.0 852.9 811.0" width="852.9" zoomAndPan="magnify"><defs><clipPath id="a"><path d="M 798 319 L 852.878906 319 L 852.878906 497 L 798 497 Z M 798 319"/></clipPath><clipPath id="b"><path d="M 54 0 L 799 0 L 799 810.988281 L 54 810.988281 Z M 54 0"/></clipPath></defs><g><g id="change1_1"><path d="M 591.71875 417.511719 C 590.601562 435.113281 576.324219 449.386719 558.738281 450.492188 C 537.40625 451.84375 519.816406 434.253906 521.167969 412.921875 C 522.273438 395.335938 536.546875 381.058594 554.148438 379.941406 C 575.480469 378.601562 593.058594 396.179688 591.71875 417.511719 Z M 462.207031 417.511719 C 461.085938 435.113281 446.8125 449.386719 429.226562 450.492188 C 407.894531 451.84375 390.304688 434.253906 391.652344 412.921875 C 392.761719 395.335938 407.035156 381.058594 424.632812 379.941406 C 445.964844 378.601562 463.542969 396.179688 462.207031 417.511719 Z M 332.691406 417.511719 C 331.574219 435.113281 317.300781 449.386719 299.710938 450.492188 C 278.378906 451.84375 260.792969 434.253906 262.140625 412.921875 C 263.25 395.335938 277.523438 381.058594 295.121094 379.941406 C 316.453125 378.601562 334.03125 396.179688 332.691406 417.511719 Z M 424.679688 174.050781 C 281.332031 174.050781 165.128906 281.085938 165.128906 413.109375 C 165.128906 545.144531 281.332031 652.179688 424.679688 652.179688 C 448.882812 652.179688 462.847656 651.863281 479.605469 649.421875 C 499.152344 646.574219 518.34375 656.484375 527.4375 674.019531 L 544.796875 707.503906 L 566.703125 663.082031 C 579.515625 637.105469 596.644531 613.46875 617.503906 593.375 C 657.375 554.972656 674.65625 525.699219 686.351562 456.515625 C 689.09375 440.285156 688.730469 424.695312 688.730469 413.691406 C 688.730469 281.65625 568.027344 174.050781 424.679688 174.050781" fill="inherit"/></g><g id="change1_2"><path d="M 0 407.742188 C 0 446.449219 22.28125 479.960938 54.71875 496.136719 L 54.71875 319.351562 C 22.28125 335.527344 0 369.035156 0 407.742188" fill="inherit"/></g><g clip-path="url(#a)" id="change1_3"><path d="M 798.164062 319.351562 L 798.164062 496.136719 C 830.601562 479.960938 852.882812 446.449219 852.882812 407.742188 C 852.882812 369.035156 830.601562 335.527344 798.164062 319.351562" fill="inherit"/></g><g clip-path="url(#b)" id="change1_4"><path d="M 798.164062 306.636719 C 798.164062 288.890625 786.015625 273.976562 769.582031 269.761719 C 764.09375 255.984375 757.957031 242.527344 751.179688 229.472656 C 742.425781 212.609375 732.601562 196.410156 721.820312 180.984375 C 727.449219 168.40625 725.558594 154.082031 716.773438 143.421875 C 713.742188 139.738281 710.613281 136.0625 707.472656 132.496094 C 632.21875 47.050781 531.785156 -0.00390625 424.671875 -0.00390625 C 317.570312 -0.00390625 217.144531 47.050781 141.898438 132.496094 C 138.757812 136.0625 135.628906 139.734375 132.59375 143.414062 C 123.8125 154.074219 121.914062 168.402344 127.542969 180.980469 C 116.757812 196.40625 106.929688 212.613281 98.171875 229.480469 C 91.183594 242.933594 84.886719 256.824219 79.265625 271.050781 C 64.917969 276.503906 54.71875 290.378906 54.71875 306.636719 L 54.71875 508.851562 C 54.71875 527.820312 68.601562 543.550781 86.757812 546.4375 C 102.984375 594.800781 130.027344 639.257812 166.300781 676.167969 C 217.257812 728.023438 283.425781 761.941406 354.789062 773.289062 C 357.324219 794.523438 375.382812 810.988281 397.296875 810.988281 C 420.949219 810.988281 440.121094 791.816406 440.121094 768.167969 C 440.121094 744.515625 420.949219 725.34375 397.296875 725.34375 C 380.222656 725.34375 365.484375 735.339844 358.609375 749.796875 C 243.503906 731.425781 148.59375 649.835938 110.675781 542.449219 C 122.675781 536.042969 130.847656 523.402344 130.847656 508.851562 L 130.847656 306.636719 C 130.847656 296.121094 126.589844 286.605469 119.699219 279.71875 C 117.8125 277.828125 115.722656 276.144531 113.472656 274.6875 C 124.464844 248.539062 137.804688 224.097656 153.199219 201.679688 C 155.578125 202.164062 158.035156 202.421875 160.542969 202.421875 C 171.371094 202.421875 181.550781 197.601562 188.472656 189.199219 C 227.175781 142.210938 275.996094 107.394531 329.65625 88.511719 C 360.308594 77.703125 392.273438 72.222656 424.671875 72.222656 C 513.367188 72.222656 599.460938 114.902344 660.871094 189.3125 C 667.746094 197.644531 677.890625 202.421875 688.703125 202.421875 L 688.824219 202.421875 C 691.328125 202.421875 693.78125 202.164062 696.15625 201.683594 C 711.867188 224.5625 725.484375 249.65625 736.671875 276.640625 C 735.449219 277.597656 734.277344 278.621094 733.183594 279.71875 C 726.292969 286.605469 722.035156 296.121094 722.035156 306.636719 L 722.035156 508.851562 C 722.035156 529.871094 739.082031 546.917969 760.101562 546.917969 C 781.117188 546.917969 798.164062 529.871094 798.164062 508.851562 L 798.164062 306.636719" fill="inherit"/></g></g></svg>